<svg width="32" height="32" viewBox="0 0 32 32" fill="none" xmlns="http://www.w3.org/2000/svg">
<rect width="32" height="32" fill="white"/>
<path d="M14.8393 31C13.7159 31 12.6411 30.8741 11.6146 30.6224C10.6075 30.3706 9.73596 30.0317 9 29.6056L9.34861 25.7127C10.2201 26.255 11.1304 26.6811 12.0794 26.991C13.0478 27.2815 13.9387 27.4268 14.7521 27.4268C15.6817 27.4268 16.4371 27.2331 17.0181 26.8457C17.5991 26.4584 17.8896 25.9452 17.8896 25.306C17.8896 24.7831 17.6959 24.3861 17.3086 24.1149C16.9212 23.8244 16.3112 23.5146 15.4784 23.1853L14.7812 22.8948C14.6843 22.8561 14.5778 22.8173 14.4616 22.7786C14.3454 22.7205 14.2098 22.6624 14.0549 22.6043C12.9703 22.1588 12.0988 21.7424 11.4403 21.3551C10.7818 20.9484 10.2105 20.3867 9.72627 19.6701C9.26146 18.9535 9.02905 18.0239 9.02905 16.8812C9.02905 15.022 9.65849 13.5597 10.9174 12.4945C12.1762 11.4293 13.929 10.8967 16.1756 10.8967C17.8799 10.8967 19.623 11.2453 21.4048 11.9426L20.7657 15.7773C20.0491 15.3706 19.2744 15.051 18.4416 14.8186C17.6282 14.5862 16.8535 14.47 16.1175 14.47C15.2072 14.47 14.5003 14.654 13.9968 15.022C13.4932 15.3706 13.2414 15.8451 13.2414 16.4455C13.2414 16.9684 13.4158 17.3751 13.7644 17.6656C14.113 17.9561 14.6746 18.266 15.4493 18.5952L16.6404 19.0601C17.7637 19.4861 18.6934 19.9025 19.4293 20.3093C20.1653 20.716 20.7947 21.3067 21.3176 22.0814C21.8405 22.8367 22.102 23.8244 22.102 25.0446C22.102 26.9232 21.4629 28.3854 20.1846 29.4313C18.9064 30.4771 17.1246 31 14.8393 31Z" fill="#1A2BC3"/>
<path fill-rule="evenodd" clip-rule="evenodd" d="M15.5416 2L5 8.85791L9.75617 11.2884V10.3219C10.8778 9.56422 13.0621 8.1259 15.8662 8.12584C18.6704 8.12579 21.7402 10.3219 21.7402 10.3219V11.4393H21.7993L26.4079 8.85791L15.5416 2Z" fill="#1A2BC3"/>
</svg>
