<svg width="150" height="40" viewBox="0 0 150 40" fill="none" xmlns="http://www.w3.org/2000/svg">
<path d="M30.7714 39.9123C29.2258 39.9123 27.7468 39.7391 26.3344 39.3927C24.9487 39.0462 23.7495 38.5799 22.7368 37.9936L23.2165 32.6372C24.4157 33.3834 25.6682 33.9697 26.974 34.396C28.3064 34.7958 29.5322 34.9956 30.6515 34.9956C31.9306 34.9956 32.9699 34.7291 33.7694 34.1962C34.5688 33.6632 34.9686 32.957 34.9686 32.0776C34.9686 31.3581 34.7021 30.8118 34.1691 30.4387C33.6361 30.039 32.7967 29.6126 31.6508 29.1596L30.6914 28.7598C30.5582 28.7065 30.4116 28.6532 30.2517 28.5999C30.0919 28.52 29.9053 28.4401 29.6921 28.3601C28.1998 27.7472 27.0006 27.1742 26.0946 26.6413C25.1885 26.0816 24.4024 25.3088 23.7361 24.3228C23.0966 23.3368 22.7768 22.0577 22.7768 20.4854C22.7768 17.9271 23.6429 15.9152 25.375 14.4495C27.1072 12.9838 29.5189 12.251 32.6102 12.251C34.9552 12.251 37.3536 12.7307 39.8053 13.69L38.9259 18.9664C37.9399 18.4068 36.8739 17.9671 35.728 17.6473C34.6088 17.3276 33.5429 17.1677 32.5302 17.1677C31.2777 17.1677 30.305 17.4208 29.6122 17.9271C28.9193 18.4068 28.5729 19.0597 28.5729 19.8858C28.5729 20.6053 28.8127 21.165 29.2924 21.5647C29.7721 21.9644 30.5449 22.3908 31.6108 22.8438L33.2497 23.4834C34.7953 24.0697 36.0745 24.6426 37.0871 25.2022C38.0998 25.7619 38.9659 26.5746 39.6854 27.6406C40.4049 28.6799 40.7646 30.039 40.7646 31.7178C40.7646 34.3028 39.8852 36.3147 38.1264 37.7538C36.3676 39.1928 33.9159 39.9123 30.7714 39.9123Z" fill="#1A2BC3"/>
<path d="M10.7128 39.9829C7.38169 39.9829 4.75679 39.0236 2.83808 37.1049C0.946028 35.1861 0 32.5213 0 29.1103C0 26.8984 0.413055 24.9797 1.23916 23.3541C2.06527 21.7019 3.22449 20.4361 4.71682 19.5567C6.23579 18.6773 8.00793 18.2376 10.0332 18.2376C13.0179 18.2376 15.3097 19.1969 16.9086 21.1156C18.5075 23.0343 19.307 25.8058 19.307 29.43C19.307 30.043 19.2936 30.496 19.267 30.7891H5.67617C5.94266 32.2015 6.55557 33.2808 7.51493 34.0269C8.47428 34.7464 9.76674 35.1062 11.3923 35.1062C12.3783 35.1062 13.4043 34.9863 14.4702 34.7464C15.5362 34.48 16.4689 34.1335 17.2683 33.7071L18.1877 38.2241C17.1218 38.7837 15.9359 39.2101 14.6301 39.5032C13.351 39.823 12.0452 39.9829 10.7128 39.9829ZM13.9106 26.552C13.8307 25.4061 13.4309 24.5 12.7114 23.8338C11.9919 23.1409 11.0326 22.7945 9.83336 22.7945C8.68747 22.7945 7.74144 23.1276 6.99528 23.7938C6.27576 24.4601 5.82274 25.3794 5.6362 26.552H13.9106Z" fill="#0F0F0F"/>
<path d="M30.7583 39.903C29.2127 39.903 27.7337 39.7298 26.3213 39.3833C24.9356 39.0369 23.7364 38.5705 22.7237 37.9843L23.2034 32.6279C24.4026 33.374 25.6551 33.9603 26.9609 34.3867C28.2933 34.7864 29.5191 34.9863 30.6384 34.9863C31.9175 34.9863 32.9568 34.7198 33.7563 34.1868C34.5557 33.6539 34.9555 32.9477 34.9555 32.0683C34.9555 31.3487 34.689 30.8024 34.156 30.4294C33.623 30.0296 32.7836 29.6032 31.6377 29.1502L30.6784 28.7505C30.5451 28.6972 30.3985 28.6439 30.2387 28.5906C30.0788 28.5107 29.8922 28.4307 29.679 28.3508C28.1867 27.7378 26.9875 27.1649 26.0815 26.6319C25.1754 26.0723 24.3893 25.2995 23.723 24.3135C23.0835 23.3275 22.7637 22.0483 22.7637 20.4761C22.7637 17.9178 23.6298 15.9058 25.3619 14.4401C27.0941 12.9745 29.5058 12.2416 32.5971 12.2416C34.9421 12.2416 37.3405 12.7213 39.7922 13.6807L38.9128 18.9571C37.9268 18.3975 36.8608 17.9578 35.715 17.638C34.5957 17.3182 33.5298 17.1583 32.5171 17.1583C31.2646 17.1583 30.2919 17.4115 29.5991 17.9178C28.9062 18.3975 28.5598 19.0504 28.5598 19.8765C28.5598 20.596 28.7996 21.1556 29.2793 21.5553C29.759 21.9551 30.5318 22.3815 31.5977 22.8345L33.2366 23.4741C34.7823 24.0603 36.0614 24.6333 37.074 25.1929C38.0867 25.7525 38.9528 26.5653 39.6723 27.6312C40.3918 28.6705 40.7516 30.0296 40.7516 31.7085C40.7516 34.2934 39.8722 36.3054 38.1133 37.7444C36.3545 39.1835 33.9028 39.903 30.7583 39.903Z" fill="#1A2BC3"/>
<path d="M52.7041 39.9829C50.7854 39.9829 49.2931 39.5032 48.2271 38.5439C47.1878 37.5579 46.6682 36.1722 46.6682 34.3867V23.6339H43.4703V18.7972H46.6682V14.4002C48.5602 14.0804 50.4257 13.8405 52.2644 13.6807V18.7972H57.4609V23.6339H52.2644V33.3474C52.2644 33.907 52.4243 34.3334 52.7441 34.6265C53.0905 34.9197 53.5702 35.0662 54.1831 35.0662C54.9293 35.0662 55.782 34.893 56.7414 34.5466L57.9806 38.7837C56.275 39.5832 54.5162 39.9829 52.7041 39.9829Z" fill="#0F0F0F"/>
<path d="M68.8092 39.9429C66.624 39.9429 64.9052 39.2767 63.6527 37.9443C62.4002 36.6119 61.7739 34.7864 61.7739 32.468V18.7972H67.4101V31.5486C67.4101 32.6412 67.6766 33.494 68.2096 34.1069C68.7426 34.6931 69.4621 34.9863 70.3681 34.9863C71.2742 34.9863 72.1403 34.6931 72.9664 34.1069C73.8191 33.5206 74.5253 32.7345 75.0849 31.7485V18.7972H80.7211V39.3833H75.0849V36.6652C74.3121 37.7045 73.4194 38.5172 72.4068 39.1035C71.4208 39.6631 70.2216 39.9429 68.8092 39.9429Z" fill="#0F0F0F"/>
<path d="M92.3386 39.9829C90.0202 39.9829 88.1947 39.1035 86.8623 37.3447C85.5565 35.5592 84.9036 33.0809 84.9036 29.9097C84.9036 26.1522 85.8763 23.2742 87.8217 21.2755C89.7937 19.2502 92.5918 18.2376 96.216 18.2376C96.669 18.2376 97.3486 18.2642 98.2546 18.3175V10.203H103.811V39.3833H98.3346L98.4545 36.7051H98.2946C97.6017 37.7711 96.749 38.5839 95.7363 39.1435C94.7503 39.7031 93.6178 39.9829 92.3386 39.9829ZM93.6177 35.0662C94.4705 35.0662 95.2966 34.7065 96.0961 33.987C96.8955 33.2408 97.6151 32.1882 98.2546 30.8291V23.514C97.3486 23.2742 96.4825 23.1543 95.6564 23.1543C93.9775 23.1543 92.6984 23.7006 91.819 24.7932C90.9662 25.8858 90.5398 27.4847 90.5398 29.5899C90.5398 31.2954 90.8063 32.6412 91.3393 33.6272C91.8989 34.5866 92.6584 35.0662 93.6177 35.0662Z" fill="#0F0F0F"/>
<path d="M118.687 39.9829C115.356 39.9829 112.731 39.0236 110.812 37.1049C108.92 35.1861 107.974 32.5213 107.974 29.1103C107.974 26.8984 108.387 24.9797 109.213 23.3541C110.039 21.7019 111.198 20.4361 112.691 19.5567C114.21 18.6773 115.982 18.2376 118.007 18.2376C120.992 18.2376 123.284 19.1969 124.883 21.1156C126.482 23.0343 127.281 25.8058 127.281 29.43C127.281 30.043 127.268 30.496 127.241 30.7891H113.65C113.917 32.2015 114.53 33.2808 115.489 34.0269C116.448 34.7464 117.741 35.1062 119.366 35.1062C120.352 35.1062 121.378 34.9863 122.444 34.7464C123.51 34.48 124.443 34.1335 125.242 33.7071L126.162 38.2241C125.096 38.7837 123.91 39.2101 122.604 39.5032C121.325 39.823 120.019 39.9829 118.687 39.9829ZM121.885 26.552C121.805 25.4061 121.405 24.5 120.685 23.8338C119.966 23.1409 119.007 22.7945 117.807 22.7945C116.661 22.7945 115.715 23.1276 114.969 23.7938C114.25 24.4601 113.797 25.3794 113.61 26.552H121.885Z" fill="#0F0F0F"/>
<path d="M141.406 39.9829C138.075 39.9829 135.45 39.0236 133.531 37.1049C131.639 35.1861 130.693 32.5213 130.693 29.1103C130.693 26.8984 131.106 24.9797 131.932 23.3541C132.758 21.7019 133.918 20.4361 135.41 19.5567C136.929 18.6773 138.701 18.2376 140.726 18.2376C143.711 18.2376 146.003 19.1969 147.602 21.1156C149.201 23.0343 150 25.8058 150 29.43C150 30.043 149.987 30.496 149.96 30.7891H136.369C136.636 32.2015 137.249 33.2808 138.208 34.0269C139.167 34.7464 140.46 35.1062 142.085 35.1062C143.071 35.1062 144.097 34.9863 145.163 34.7464C146.229 34.48 147.162 34.1335 147.961 33.7071L148.881 38.2241C147.815 38.7837 146.629 39.2101 145.323 39.5032C144.044 39.823 142.738 39.9829 141.406 39.9829ZM144.604 26.552C144.524 25.4061 144.124 24.5 143.404 23.8338C142.685 23.1409 141.726 22.7945 140.526 22.7945C139.381 22.7945 138.434 23.1276 137.688 23.7938C136.969 24.4601 136.516 25.3794 136.329 26.552H144.604Z" fill="#0F0F0F"/>
<path fill-rule="evenodd" clip-rule="evenodd" d="M32.1457 0L17.6409 9.43621L24.1852 12.7804V11.4506C25.7285 10.4081 28.734 8.42899 32.5924 8.42892C36.4507 8.42884 40.6746 11.4506 40.6746 11.4506V12.988H40.756L47.0973 9.43621L32.1457 0Z" fill="#1A2BC3"/>
</svg>
